<svg width="43" height="45" viewBox="0 0 43 45" fill="none" xmlns="http://www.w3.org/2000/svg">
<path d="M40.7875 36.5051C39.7374 34.0179 38.2136 31.7586 36.301 29.8532C34.3941 27.9423 32.1352 26.4188 29.6491 25.3667C29.6268 25.3556 29.6046 25.35 29.5823 25.3389C33.0502 22.834 35.3046 18.7538 35.3046 14.1504C35.3046 6.52441 29.1259 0.345703 21.4999 0.345703C13.8739 0.345703 7.69521 6.52441 7.69521 14.1504C7.69521 18.7538 9.9496 22.834 13.4175 25.3444C13.3952 25.3556 13.3729 25.3611 13.3507 25.3723C10.8569 26.4243 8.61923 27.9328 6.69882 29.8588C4.78793 31.7657 3.26437 34.0245 2.2123 36.5106C1.17874 38.9446 0.621318 41.5541 0.570208 44.1979C0.568722 44.2573 0.579142 44.3164 0.600855 44.3717C0.622568 44.427 0.655134 44.4774 0.696634 44.52C0.738134 44.5625 0.787728 44.5963 0.842495 44.6194C0.897261 44.6424 0.956092 44.6543 1.01552 44.6543H4.35536C4.60029 44.6543 4.79511 44.4595 4.80068 44.2201C4.912 39.9229 6.63759 35.8983 9.68798 32.848C12.8441 29.6918 17.0356 27.9551 21.4999 27.9551C25.9642 27.9551 30.1557 29.6918 33.3118 32.848C36.3622 35.8983 38.0878 39.9229 38.1991 44.2201C38.2047 44.465 38.3995 44.6543 38.6444 44.6543H41.9843C42.0437 44.6543 42.1025 44.6424 42.1573 44.6194C42.2121 44.5963 42.2617 44.5625 42.3032 44.52C42.3447 44.4774 42.3772 44.427 42.3989 44.3717C42.4206 44.3164 42.4311 44.2573 42.4296 44.1979C42.3739 41.5371 41.8228 38.9487 40.7875 36.5051V36.5051ZM21.4999 23.7246C18.9449 23.7246 16.5402 22.7282 14.7311 20.9191C12.9221 19.1101 11.9257 16.7054 11.9257 14.1504C11.9257 11.5954 12.9221 9.19072 14.7311 7.38164C16.5402 5.57256 18.9449 4.57617 21.4999 4.57617C24.0549 4.57617 26.4596 5.57256 28.2686 7.38164C30.0777 9.19072 31.0741 11.5954 31.0741 14.1504C31.0741 16.7054 30.0777 19.1101 28.2686 20.9191C26.4596 22.7282 24.0549 23.7246 21.4999 23.7246Z" fill="#171717"/>
</svg>
