<svg width="55" height="48" viewBox="0 0 55 48" fill="none" xmlns="http://www.w3.org/2000/svg">
<path d="M54.45 0H0.55C0.2475 0 0 0.245455 0 0.545455V4.90909C0 5.20909 0.2475 5.45455 0.55 5.45455H54.45C54.7525 5.45455 55 5.20909 55 4.90909V0.545455C55 0.245455 54.7525 0 54.45 0ZM54.45 42.5455H0.55C0.2475 42.5455 0 42.7909 0 43.0909V47.4545C0 47.7545 0.2475 48 0.55 48H54.45C54.7525 48 55 47.7545 55 47.4545V43.0909C55 42.7909 54.7525 42.5455 54.45 42.5455ZM54.45 21.2727H0.55C0.2475 21.2727 0 21.5182 0 21.8182V26.1818C0 26.4818 0.2475 26.7273 0.55 26.7273H54.45C54.7525 26.7273 55 26.4818 55 26.1818V21.8182C55 21.5182 54.7525 21.2727 54.45 21.2727Z" fill="#171717"/>
</svg>
