<svg width="44" height="50" viewBox="0 0 44 50" fill="none" xmlns="http://www.w3.org/2000/svg">
<path d="M41.375 12.8906H33.1406V11.9219C33.1406 5.77031 28.1516 0.78125 22 0.78125C15.8484 0.78125 10.8594 5.77031 10.8594 11.9219V12.8906H2.625C1.55332 12.8906 0.6875 13.7564 0.6875 14.8281V47.2812C0.6875 48.3529 1.55332 49.2188 2.625 49.2188H41.375C42.4467 49.2188 43.3125 48.3529 43.3125 47.2812V14.8281C43.3125 13.7564 42.4467 12.8906 41.375 12.8906ZM15.2188 11.9219C15.2188 8.17402 18.2521 5.14062 22 5.14062C25.7479 5.14062 28.7812 8.17402 28.7812 11.9219V12.8906H15.2188V11.9219ZM38.9531 44.8594H5.04688V17.25H10.8594V22.5781C10.8594 22.8445 11.0773 23.0625 11.3438 23.0625H14.7344C15.0008 23.0625 15.2188 22.8445 15.2188 22.5781V17.25H28.7812V22.5781C28.7812 22.8445 28.9992 23.0625 29.2656 23.0625H32.6562C32.9227 23.0625 33.1406 22.8445 33.1406 22.5781V17.25H38.9531V44.8594Z" fill="#171717"/>
</svg>
