<svg width="20" height="20" viewBox="0 0 20 20" fill="none" xmlns="http://www.w3.org/2000/svg">
<path d="M19.0539 18.0462C19.3321 18.3244 19.3321 18.7756 19.0539 19.0538C18.7756 19.3321 18.3245 19.3321 18.0462 19.0538L14.6262 15.6338C14.348 15.3556 14.348 14.9044 14.6262 14.6262C14.9045 14.3479 15.3556 14.3479 15.6339 14.6262L19.0539 18.0462ZM8.29005 15.8425C4.11892 15.8425 0.737549 12.4611 0.737549 8.28999C0.737549 4.11886 4.11892 0.737488 8.29005 0.737488C12.4612 0.737488 15.8425 4.11886 15.8425 8.28999C15.8425 12.4611 12.4612 15.8425 8.29005 15.8425ZM8.29005 14.4175C11.6742 14.4175 14.4175 11.6741 14.4175 8.28999C14.4175 4.90586 11.6742 2.16249 8.29005 2.16249C4.90592 2.16249 2.16255 4.90586 2.16255 8.28999C2.16255 11.6741 4.90592 14.4175 8.29005 14.4175ZM4.77505 7.71999C4.77505 7.98232 4.56238 8.19499 4.30005 8.19499C4.03771 8.19499 3.82505 7.98232 3.82505 7.71999C3.82505 5.56884 5.5689 3.82499 7.72005 3.82499C7.98238 3.82499 8.19505 4.03765 8.19505 4.29999C8.19505 4.56232 7.98238 4.77499 7.72005 4.77499C6.09357 4.77499 4.77505 6.09351 4.77505 7.71999Z" fill="#3F3356"/>
</svg>
