<svg width="30" height="30" viewBox="0 0 30 30" fill="none" xmlns="http://www.w3.org/2000/svg">
<g clip-path="url(#clip0_651_3292)">
<path d="M16.5 6.5C16.5 5.83696 16.7634 5.20107 17.2322 4.73223C17.7011 4.26339 18.337 4 19 4H27.75C28.413 4 29.0489 4.26339 29.5178 4.73223C29.9866 5.20107 30.25 5.83696 30.25 6.5V14C30.25 14.663 29.9866 15.2989 29.5178 15.7678C29.0489 16.2366 28.413 16.5 27.75 16.5H19C18.337 16.5 17.7011 16.2366 17.2322 15.7678C16.7634 15.2989 16.5 14.663 16.5 14V6.5ZM19.625 7.75C19.4592 7.75 19.3003 7.81585 19.1831 7.93306C19.0658 8.05027 19 8.20924 19 8.375C19 8.54076 19.0658 8.69973 19.1831 8.81694C19.3003 8.93415 19.4592 9 19.625 9H27.125C27.2908 9 27.4497 8.93415 27.5669 8.81694C27.6842 8.69973 27.75 8.54076 27.75 8.375C27.75 8.20924 27.6842 8.05027 27.5669 7.93306C27.4497 7.81585 27.2908 7.75 27.125 7.75H19.625ZM19.625 11.5C19.4592 11.5 19.3003 11.5658 19.1831 11.6831C19.0658 11.8003 19 11.9592 19 12.125C19 12.2908 19.0658 12.4497 19.1831 12.5669C19.3003 12.6842 19.4592 12.75 19.625 12.75H27.125C27.2908 12.75 27.4497 12.6842 27.5669 12.5669C27.6842 12.4497 27.75 12.2908 27.75 12.125C27.75 11.9592 27.6842 11.8003 27.5669 11.6831C27.4497 11.5658 27.2908 11.5 27.125 11.5H19.625ZM8.0625 6.5H15.25V8.375H8.0625C7.48234 8.375 6.92594 8.60547 6.5157 9.0157C6.10547 9.42594 5.875 9.98234 5.875 10.5625V21.1875C5.875 22.395 6.855 23.375 8.0625 23.375H10.8738V28.0625L17.1425 23.375H24.9375C25.5177 23.375 26.0741 23.1445 26.4843 22.7343C26.8945 22.3241 27.125 21.7677 27.125 21.1875V17.75H27.75C28.1875 17.75 28.6088 17.675 29 17.5375V21.1875C29 21.721 28.8949 22.2493 28.6908 22.7422C28.4866 23.235 28.1874 23.6829 27.8101 24.0601C27.4329 24.4374 26.985 24.7366 26.4922 24.9408C25.9993 25.1449 25.471 25.25 24.9375 25.25H17.765L11.5 29.9375C11.2679 30.1112 10.9919 30.217 10.7031 30.2428C10.4143 30.2687 10.124 30.2137 9.8647 30.084C9.60537 29.9542 9.38726 29.7549 9.23477 29.5083C9.08228 29.2617 9.00142 28.9775 9.00125 28.6875V25.25H8.06375C7.53015 25.2502 7.00174 25.1452 6.50871 24.9411C6.01569 24.737 5.56769 24.4378 5.19032 24.0606C4.81295 23.6833 4.5136 23.2354 4.30936 22.7424C4.10512 22.2495 4 21.7211 4 21.1875V10.5625C4 9.48506 4.42801 8.45175 5.18988 7.68988C5.95175 6.92801 6.98506 6.5 8.0625 6.5V6.5Z" fill="#505050"/>
</g>
<defs>
<clipPath id="clip0_651_3292">
<rect width="30" height="30" fill="white"/>
</clipPath>
</defs>
</svg>
