<svg width="30" height="30" viewBox="0 0 30 30" fill="none" xmlns="http://www.w3.org/2000/svg">
<path d="M21.8775 2.66863C22.0669 2.77855 22.224 2.93628 22.3333 3.12604C22.4425 3.31579 22.5 3.53092 22.5 3.74988V8.74988C23.2035 8.74911 23.8992 8.89718 24.5414 9.18435C25.1836 9.47152 25.7578 9.89131 26.2263 10.4161C27.0476 11.3322 27.5013 12.5195 27.5 13.7499C27.5 15.0299 27.0175 16.1999 26.2263 17.0836C25.7576 17.6083 25.1834 18.0279 24.5412 18.3151C23.8991 18.6022 23.2035 18.7504 22.5 18.7499V23.7499C22.4999 23.9688 22.4424 24.1838 22.3331 24.3735C22.2238 24.5632 22.0667 24.7208 21.8773 24.8307C21.688 24.9405 21.4731 24.9987 21.2542 24.9995C21.0353 25.0002 20.8201 24.9435 20.63 24.8349L12.5 20.1899V26.2499C12.5 26.5814 12.3683 26.8993 12.1339 27.1338C11.8995 27.3682 11.5815 27.4999 11.25 27.4999H6.25C5.91848 27.4999 5.60054 27.3682 5.36612 27.1338C5.1317 26.8993 5 26.5814 5 26.2499V19.9999C4.33696 19.9999 3.70107 19.7365 3.23223 19.2676C2.76339 18.7988 2.5 18.1629 2.5 17.4999V9.99988C2.5 9.33684 2.76339 8.70095 3.23223 8.23211C3.70107 7.76327 4.33696 7.49988 5 7.49988H12.1675L20.63 2.66488C20.8201 2.5562 21.0353 2.49935 21.2543 2.50001C21.4732 2.50066 21.6881 2.55881 21.8775 2.66863V2.66863ZM12.5 17.4999C12.7175 17.5 12.9312 17.5569 13.12 17.6649L20 21.5961V5.90363L13.12 9.83488C12.9312 9.94288 12.7175 9.99976 12.5 9.99988H5V17.4999H12.5ZM7.5 19.9999V24.9999H10V19.9999H7.5ZM22.5 16.2499C23.24 16.2499 23.9037 15.9299 24.3637 15.4161C24.76 14.9736 25 14.3911 25 13.7499C25 13.1086 24.76 12.5261 24.3637 12.0836C24.1296 11.8209 23.8425 11.6108 23.5212 11.4671C23.2 11.3233 22.8519 11.2493 22.5 11.2499V16.2499Z" fill="#505050"/>
</svg>
