<svg width="30" height="30" viewBox="0 0 30 30" fill="none" xmlns="http://www.w3.org/2000/svg">
<path d="M26.25 7.5H22.2875L20 5H12.5V7.5H18.9L21.1875 10H26.25V25H6.25V13.75H3.75V25C3.75 26.375 4.875 27.5 6.25 27.5H26.25C27.625 27.5 28.75 26.375 28.75 25V10C28.75 8.625 27.625 7.5 26.25 7.5ZM10 17.5C10 20.95 12.8 23.75 16.25 23.75C19.7 23.75 22.5 20.95 22.5 17.5C22.5 14.05 19.7 11.25 16.25 11.25C12.8 11.25 10 14.05 10 17.5ZM16.25 13.75C18.3125 13.75 20 15.4375 20 17.5C20 19.5625 18.3125 21.25 16.25 21.25C14.1875 21.25 12.5 19.5625 12.5 17.5C12.5 15.4375 14.1875 13.75 16.25 13.75ZM6.25 7.5H10V5H6.25V1.25H3.75V5H0V7.5H3.75V11.25H6.25V7.5Z" fill="#505050"/>
</svg>
